<svg version="1.1" xmlns="http://www.w3.org/2000/svg" xmlns:xlink="http://www.w3.org/1999/xlink" x="0px" y="0px" width="300px"
	 height="219px" viewBox="0 0 300 219" style="enable-background:new 0 0 300 219;" xml:space="preserve">
<style type="text/css">
	.st0{fill:#FFFFFF;}
	.st1{fill:#EBE32A;}
	.st2{fill:url(#SVGID_1_);}
	.st3{fill:url(#SVGID_2_);}
	.st4{fill:url(#SVGID_3_);}
	.st5{fill:url(#SVGID_4_);}
	.st6{fill:url(#SVGID_5_);}
	.st7{fill:url(#SVGID_6_);}
	.st8{fill:url(#SVGID_7_);}
	.st9{fill:url(#SVGID_8_);}
	.st10{fill:url(#SVGID_9_);}
	.st11{fill:url(#SVGID_10_);}
	.st12{fill:url(#SVGID_11_);}
	.st13{fill:url(#SVGID_12_);}
</style>
<defs>
</defs>
<g>
	<path d="M149.99,219c-1.99,0-3.95-0.53-5.66-1.53L59.7,168.41c-3.49-2.03-5.66-5.8-5.66-9.85v-5.17L7.5,136.66
		c-2.92-1.05-5.31-3.29-6.55-6.14c-1.24-2.86-1.26-6.14-0.05-9l14.69-34.74l-4.13-9.93c-1.47-3.51-1.08-7.51,1.02-10.68
		c2.1-3.17,5.62-5.07,9.42-5.07h32.15v-0.67c0-4.05,2.17-7.82,5.66-9.84l84.63-49.07c1.72-0.99,3.68-1.52,5.66-1.52
		c1.98,0,3.93,0.52,5.64,1.51l84.64,49.08c3.49,2.03,5.66,5.8,5.66,9.85v0.67h30.7c8.21,0,15.35,3.71,19.6,10.16
		c4.41,6.69,4.97,15.17,1.53,23.28l-8.72,20.63c-2.57,6.09-7.2,11.68-13.04,15.74l0,0c0.01,0-0.71,0.47-30.07,19.49v8.16
		c0,4.05-2.17,7.82-5.66,9.84l-84.63,49.07C153.93,218.47,151.98,219,149.99,219z"/>
</g>
<g>
	<path class="st0" d="M149.99,215.21c-1.33,0-2.63-0.35-3.77-1.02l-84.63-49.07c-2.33-1.35-3.77-3.87-3.77-6.56v-7.84L8.77,133.09
		c-1.95-0.7-3.54-2.19-4.37-4.09c-0.83-1.9-0.84-4.09-0.03-6l15.31-36.21l-4.75-11.4c-0.98-2.34-0.72-5,0.68-7.12
		c1.4-2.11,3.75-3.38,6.28-3.38h35.92v-4.45c0-2.7,1.44-5.21,3.77-6.56L146.22,4.8c1.15-0.66,2.45-1.01,3.77-1.01
		c1.32,0,2.62,0.35,3.77,1.01l84.64,49.07c2.33,1.35,3.77,3.87,3.77,6.56v4.45h34.47c6.91,0,12.92,3.09,16.46,8.47
		c3.7,5.61,4.13,12.79,1.2,19.71l-8.72,20.64c-2.3,5.44-6.46,10.45-11.72,14.1c-0.04,0.03-0.06,0.05-31.69,20.54v10.22
		c0,2.7-1.44,5.21-3.77,6.56l-84.63,49.07C152.62,214.86,151.31,215.21,149.99,215.21z"/>
</g>
<path d="M290.58,75.47c-2.83-4.3-7.69-6.77-13.31-6.77H238.4v-8.27c0-1.35-0.72-2.6-1.89-3.28L151.89,8.08
	c-1.17-0.68-2.61-0.68-3.77,0L63.48,57.15c-1.17,0.68-1.89,1.93-1.89,3.28v8.27H22.52c-2.69,0-4.52,2.75-3.48,5.25l5.36,12.87
	L8.47,124.51c-0.85,2,0.16,4.31,2.2,5.05l50.93,18.31v10.7c0,1.35,0.72,2.6,1.89,3.28l84.63,49.07c1.17,0.68,2.61,0.68,3.77,0
	l84.63-49.07c1.17-0.68,1.89-1.93,1.89-3.28v-11.85c2.78-1.8,33.89-21.96,33.94-22c4.68-3.25,8.37-7.68,10.39-12.47l8.72-20.64
	C293.88,85.88,293.56,80,290.58,75.47z"/>
<g>
	<polygon class="st1" points="169.03,57.23 184.24,72.5 184.76,72.5 173.38,56.77 	"/>
	<polygon class="st1" points="160.24,60.42 174.5,70.82 163.31,59.59 	"/>
	<polygon class="st1" points="193.6,72.5 184.96,55.46 179.27,55.16 191.81,72.5 	"/>
	<polygon class="st1" points="171.1,150.21 184.65,146.56 179.26,146.56 	"/>
	<polygon class="st1" points="183.8,156.26 185.58,152.24 162.18,158.54 	"/>
	<polygon class="st1" points="152.87,64.39 163.29,69.72 154.8,63.53 	"/>
	<polygon class="st1" points="152.15,150.82 153.11,150.19 147.06,148.21 	"/>
	<polygon class="st1" points="146.87,68.87 152.92,70.85 147.84,68.25 	"/>
	<polygon class="st1" points="85.63,72.5 92.05,72.5 109.35,53.2 	"/>
	<polygon class="st1" points="72.9,64.84 72.9,72.5 76.56,72.5 118.46,38.42 	"/>
	<polygon class="st1" points="227.08,64.84 217.91,59.52 219.95,72.5 227.08,72.5 	"/>
	<polygon class="st1" points="214.36,146.57 207.93,146.56 190.64,165.85 	"/>
	<polygon class="st1" points="85.8,146.55 87.92,160.01 96.13,163.17 90.75,146.55 	"/>
	<polygon class="st1" points="72.9,154.23 82.07,159.54 80.02,146.55 72.9,146.55 	"/>
	<polygon class="st1" points="227.08,154.23 227.08,146.57 223.42,146.57 181.51,180.64 	"/>
	<polygon class="st1" points="145.18,155.53 147.11,154.67 136.68,149.34 	"/>
	<polygon class="st1" points="214.18,72.5 212.06,59.06 203.86,55.89 209.23,72.5 	"/>
	<polygon class="st1" points="130.67,35.87 178.25,46.03 137.5,30.32 	"/>
	<polygon class="st1" points="123.07,46.47 162.65,48.55 127.86,41.12 	"/>
	<polygon class="st1" points="196.25,151.03 200.26,146.56 199.14,146.56 	"/>
	<polygon class="st1" points="117.74,56.88 149.1,53.57 120.84,52.09 	"/>
	<polygon class="st1" points="190.91,54.58 200,72.5 203.23,72.5 197.92,56.08 	"/>
	<polygon class="st1" points="140.82,25.46 195.56,46.56 149.99,20.14 	"/>
	<polygon class="st1" points="159.16,193.6 104.42,172.5 149.99,198.92 	"/>
	<polygon class="st1" points="103.72,68.04 99.73,72.5 100.84,72.5 	"/>
	<polygon class="st1" points="109.06,164.48 99.97,146.55 96.74,146.55 102.06,162.99 	"/>
	<polygon class="st1" points="176.92,172.6 137.33,170.51 172.13,177.94 	"/>
	<polygon class="st1" points="114.4,66.82 137.8,60.52 116.18,62.81 	"/>
	<polygon class="st1" points="120.74,72.5 128.88,68.86 115.35,72.5 	"/>
	<polygon class="st1" points="182.24,162.18 150.87,165.49 179.14,166.98 	"/>
	<polygon class="st1" points="130.95,161.83 115.73,146.55 115.21,146.55 126.6,162.29 	"/>
	<polygon class="st1" points="139.74,158.65 125.48,148.24 136.66,159.47 	"/>
	<polygon class="st1" points="106.37,146.55 115.02,163.6 120.71,163.9 108.16,146.55 	"/>
	<polygon class="st1" points="169.31,183.2 121.73,173.04 162.48,188.75 	"/>
</g>
<g>
	<path class="st0" d="M166.08,100.06h0.79c3.13,0,6.74-2.55,8.06-5.68l3.18-7.52c2.16-5.11-0.21-9.25-5.3-9.25h-38.17l3.85,9.25
		l-14.38,34.02h12.91l7.27-17.2h12.83l-2.88,17.2h12.91l2.75-16.39C170.32,101.88,168.75,100.06,166.08,100.06z M163.36,91.22
		c-0.75,1.78-2.79,3.22-4.56,3.22h-10.6l3.2-7.58H162c1.77,0,2.59,1.44,1.84,3.22L163.36,91.22z"/>
	<path class="st0" d="M67.27,77.61H29.68l3.85,9.25l-14.38,34.02h12.91l14.38-34.02h11.32c1.75,0,2.57,1.43,1.83,3.19l-13.03,30.83
		h12.91L73.3,88.13C75.75,82.32,73.05,77.61,67.27,77.61z"/>
	<path class="st0" d="M211.21,104.85c-1.36,3.21-5.05,5.81-8.25,5.81h-8.7l13.97-33.05h-20.66l3.85,9.25l-14.38,34.02h29.83
		c5.79,0,12.47-4.71,14.92-10.52l13.84-32.75h-12.91L211.21,104.85z"/>
	<path class="st0" d="M276.77,77.61H259c-6.66,0-14.35,5.42-17.18,12.11l-8.72,20.64c-2.46,5.81,0.24,10.52,6.03,10.52h17.77
		c6.66,0,14.35-5.42,17.18-12.11l8.72-20.64C285.26,82.32,282.56,77.61,276.77,77.61z M262.83,104.85
		c-1.36,3.21-5.05,5.81-8.25,5.81h-5.53c-1.75,0-2.57-1.43-1.83-3.19l6.26-14.81c1.36-3.21,5.05-5.81,8.25-5.81h5.53
		c1.75,0,2.57,1.43,1.83,3.19L262.83,104.85z"/>
	<polygon class="st0" points="92.85,103.05 111.5,103.05 115.15,94.44 96.5,94.44 99.7,86.86 123.34,86.86 127.25,77.61
		82.94,77.61 86.79,86.86 72.41,120.88 72.41,120.88 111.15,120.88 115.47,110.67 89.64,110.67 	"/>
</g>
<g>
	<path class="st1" d="M77.72,129.68v8.75c0,0.59-0.52,1.08-1.14,1.08h-4.65c-0.62,0-1.13-0.49-1.13-1.08v-1.73h1.7v0.81
		c0,0.14,0.12,0.25,0.27,0.25h2.97c0.15,0,0.27-0.11,0.27-0.25v-7.84H77.72z"/>
	<path class="st1" d="M85.19,137.21H82l-0.74,2.3h-1.82l3.31-9.83h1.7l3.31,9.83h-1.82L85.19,137.21z M84.62,135.46l-1.03-3.16
		l-1.03,3.16H84.62z"/>
	<path class="st1" d="M95.47,129.68l-3.31,9.83h-1.7l-3.31-9.83h1.82l2.34,7.2l2.34-7.2H95.47z"/>
	<path class="st1" d="M100.75,137.21h-3.19l-0.74,2.3h-1.82l3.31-9.83h1.7l3.31,9.83h-1.82L100.75,137.21z M100.19,135.46
		l-1.03-3.16l-1.03,3.16H100.19z"/>
	<path class="st1" d="M111.92,130.76v1.73h-1.7v-0.81c0-0.14-0.12-0.25-0.27-0.25H107c-0.15,0-0.27,0.11-0.27,0.25v1.8
		c0,0.14,0.12,0.25,0.27,0.25h3.78c0.62,0,1.14,0.49,1.14,1.08v3.62c0,0.59-0.52,1.08-1.14,1.08h-4.62c-0.62,0-1.14-0.49-1.14-1.08
		v-1.73h1.7v0.81c0,0.14,0.12,0.25,0.27,0.25h2.94c0.15,0,0.27-0.11,0.27-0.25v-1.8c0-0.14-0.12-0.25-0.27-0.25h-3.78
		c-0.62,0-1.14-0.49-1.14-1.08v-3.62c0-0.59,0.51-1.08,1.14-1.08h4.62C111.41,129.68,111.92,130.17,111.92,130.76z"/>
	<path class="st1" d="M121.22,130.76v1.73h-1.7v-0.81c0-0.14-0.12-0.25-0.27-0.25h-2.97c-0.15,0-0.27,0.11-0.27,0.25v5.84
		c0,0.14,0.12,0.25,0.27,0.25h2.97c0.15,0,0.27-0.11,0.27-0.25v-0.81h1.7v1.73c0,0.59-0.51,1.08-1.14,1.08h-4.65
		c-0.62,0-1.14-0.49-1.14-1.08v-7.67c0-0.59,0.51-1.08,1.14-1.08h4.65C120.7,129.68,121.22,130.17,121.22,130.76z"/>
	<path class="st1" d="M130.27,130.76v3.19c0,0.45-0.26,0.8-0.68,0.93c0.42,0.12,0.68,0.48,0.68,0.93v3.71h-1.7v-3.48
		c0-0.2-0.08-0.28-0.27-0.28h-3.22v3.76h-1.7v-9.83h5.76C129.75,129.68,130.27,130.17,130.27,130.76z M128.29,131.42h-3.22V134h3.22
		c0.19,0,0.27-0.08,0.27-0.28v-2.05C128.56,131.53,128.44,131.42,128.29,131.42z"/>
	<path class="st1" d="M132.64,129.68h1.7v9.83h-1.7V129.68z"/>
	<path class="st1" d="M143.64,130.76v4.18c0,0.59-0.51,1.08-1.14,1.08h-4.08v3.48h-1.7v-9.83h5.79
		C143.13,129.68,143.64,130.17,143.64,130.76z M141.66,131.42h-3.24v2.86h3.24c0.15,0,0.27-0.11,0.27-0.25v-2.36
		C141.93,131.53,141.81,131.42,141.66,131.42z"/>
	<path class="st1" d="M151.89,131.42h-2.6v8.09h-1.7v-8.09H145v-1.74h6.89V131.42z"/>
	<path class="st1" d="M163.02,137.21h-3.19l-0.74,2.3h-1.82l3.31-9.83h1.7l3.31,9.83h-1.82L163.02,137.21z M162.46,135.46
		l-1.03-3.16l-1.03,3.16H162.46z"/>
	<path class="st1" d="M174.19,129.68v9.83h-1.95l-3.24-6.45v6.45h-1.7v-9.83h1.93l3.26,6.47v-6.47H174.19z"/>
	<path class="st1" d="M176.56,129.68h1.7v9.83h-1.7V129.68z"/>
	<path class="st1" d="M189.66,139.51h-1.7v-7.25l-1.99,5.5h-1.63l-1.99-5.5v7.25h-1.7v-9.83h2.53l1.99,5.73l1.97-5.73h2.53V139.51z"
		/>
	<path class="st1" d="M197.13,137.21h-3.19l-0.74,2.3h-1.82l3.31-9.83h1.7l3.31,9.83h-1.82L197.13,137.21z M196.56,135.46
		l-1.03-3.16l-1.03,3.16H196.56z"/>
	<path class="st1" d="M206.56,131.42h-2.6v8.09h-1.7v-8.09h-2.6v-1.74h6.89V131.42z"/>
	<path class="st1" d="M208.27,129.68h1.7v9.83h-1.7V129.68z"/>
	<path class="st1" d="M219.27,130.76v7.67c0,0.59-0.51,1.08-1.14,1.08h-4.65c-0.62,0-1.14-0.49-1.14-1.08v-7.67
		c0-0.59,0.51-1.08,1.14-1.08h4.65C218.76,129.68,219.27,130.17,219.27,130.76z M217.29,131.42h-2.97c-0.15,0-0.27,0.11-0.27,0.25
		v5.84c0,0.14,0.12,0.25,0.27,0.25h2.97c0.15,0,0.27-0.11,0.27-0.25v-5.84C217.57,131.53,217.44,131.42,217.29,131.42z"/>
	<path class="st1" d="M228.54,129.68v9.83h-1.95l-3.24-6.45v6.45h-1.7v-9.83h1.93l3.26,6.47v-6.47H228.54z"/>
</g>
<g>

		<linearGradient id="SVGID_1_" gradientUnits="userSpaceOnUse" x1="255.1501" y1="114.7949" x2="255.1501" y2="50.3395" gradientTransform="matrix(1 0 0 1 0 5.7899)">
		<stop  offset="0" style="stop-color:#FFFFFF"/>
		<stop  offset="1" style="stop-color:#000000"/>
	</linearGradient>
	<path class="st2" d="M265.2,99.25l-2.37,5.61c-1.36,3.21-5.05,5.81-8.25,5.81h-5.53c-1.75,0-2.57-1.43-1.83-3.19l3.48-8.23H237.8
		l-4.7,11.11c-2.46,5.81,0.24,10.52,6.03,10.52h17.77c6.66,0,14.35-5.42,17.18-12.11l4.03-9.52H265.2z"/>

		<linearGradient id="SVGID_2_" gradientUnits="userSpaceOnUse" x1="201.7638" y1="114.7949" x2="201.7638" y2="50.3395" gradientTransform="matrix(1 0 0 1 0 5.7899)">
		<stop  offset="0" style="stop-color:#FFFFFF"/>
		<stop  offset="1" style="stop-color:#000000"/>
	</linearGradient>
	<path class="st3" d="M206.87,120.88c5.79,0,12.47-4.71,14.92-10.52l4.7-11.11h-12.91l-2.37,5.61c-1.36,3.21-5.05,5.81-8.25,5.81
		h-8.7l4.83-11.42h-12.91l-9.14,21.63H206.87z"/>

		<linearGradient id="SVGID_3_" gradientUnits="userSpaceOnUse" x1="147.0316" y1="114.7949" x2="147.0316" y2="50.3395" gradientTransform="matrix(1 0 0 1 0 5.7899)">
		<stop  offset="0" style="stop-color:#FFFFFF"/>
		<stop  offset="1" style="stop-color:#000000"/>
	</linearGradient>
	<path class="st4" d="M144.28,103.68h12.83l-2.88,17.2h12.91l2.75-16.39c0.44-2.6-1.13-4.42-3.81-4.42h0.79
		c1.02,0,2.06-0.34,3.09-0.81h-36.7l-9.14,21.63h12.91L144.28,103.68z"/>

		<linearGradient id="SVGID_4_" gradientUnits="userSpaceOnUse" x1="93.9392" y1="114.7949" x2="93.9392" y2="50.3395" gradientTransform="matrix(1 0 0 1 0 5.7899)">
		<stop  offset="0" style="stop-color:#FFFFFF"/>
		<stop  offset="1" style="stop-color:#000000"/>
	</linearGradient>
	<polygon class="st5" points="89.64,110.67 92.85,103.05 111.5,103.05 113.11,99.25 81.56,99.25 72.41,120.88 72.41,120.88
		111.15,120.88 115.47,110.67 	"/>

		<linearGradient id="SVGID_5_" gradientUnits="userSpaceOnUse" x1="30.2118" y1="114.7949" x2="30.2118" y2="50.3395" gradientTransform="matrix(1 0 0 1 0 5.7899)">
		<stop  offset="0" style="stop-color:#FFFFFF"/>
		<stop  offset="1" style="stop-color:#000000"/>
	</linearGradient>
	<polygon class="st6" points="19.23,120.88 32.05,120.88 41.2,99.25 28.29,99.25 19.23,120.69 	"/>

		<linearGradient id="SVGID_6_" gradientUnits="userSpaceOnUse" x1="57.5729" y1="114.7949" x2="57.5729" y2="50.3395" gradientTransform="matrix(1 0 0 1 0 5.7899)">
		<stop  offset="0" style="stop-color:#FFFFFF"/>
		<stop  offset="1" style="stop-color:#000000"/>
	</linearGradient>
	<polygon class="st7" points="55.69,99.25 46.55,120.88 59.45,120.88 68.6,99.25 	"/>
</g>
<g>
	<path class="st0" d="M172.81,78.18c2.12,0,3.8,0.78,4.73,2.18c1.04,1.58,1.06,3.87,0.05,6.26l-3.18,7.52
		c-1.24,2.94-4.63,5.34-7.54,5.34h-0.79c-0.32,0-0.57,0.26-0.57,0.57c0,0.32,0.26,0.57,0.57,0.57c1.16,0,2.07,0.37,2.66,1.06
		c0.57,0.67,0.77,1.61,0.59,2.7l-2.67,15.92H154.9l2.77-16.53c0.03-0.17-0.02-0.34-0.13-0.46c-0.11-0.13-0.27-0.2-0.44-0.2h-12.83
		c-0.23,0-0.44,0.14-0.53,0.35l-7.12,16.85h-11.67l14.04-33.22c0.06-0.14,0.06-0.3,0-0.44l-3.52-8.45H172.81 M148.19,95.01h10.6
		c2.01,0,4.24-1.57,5.09-3.56l0.48-1.15c0.46-1.08,0.42-2.14-0.08-2.91c-0.47-0.71-1.28-1.11-2.28-1.11h-10.6
		c-0.23,0-0.44,0.14-0.53,0.35l-3.2,7.58c-0.07,0.18-0.06,0.38,0.05,0.54C147.82,94.91,148,95.01,148.19,95.01 M172.81,77.61h-38.17
		l3.85,9.25l-14.38,34.02h12.91l7.27-17.2h12.83l-2.88,17.2h12.91l2.75-16.39c0.44-2.6-1.13-4.42-3.81-4.42h0.79
		c3.13,0,6.74-2.55,8.06-5.69l3.18-7.52C180.27,81.75,177.89,77.61,172.81,77.61L172.81,77.61z M148.19,94.44l3.2-7.58H162
		c1.77,0,2.59,1.44,1.84,3.22l-0.48,1.15c-0.75,1.78-2.79,3.22-4.56,3.22H148.19L148.19,94.44z"/>
	<path class="st0" d="M67.27,78.18c2.44,0,4.37,0.9,5.44,2.52c1.2,1.82,1.22,4.45,0.06,7.2l-13.69,32.4H47.41l12.7-30.04
		c0.45-1.07,0.42-2.12-0.08-2.89c-0.47-0.71-1.27-1.1-2.27-1.1H46.43c-0.23,0-0.44,0.14-0.53,0.35l-14.23,33.67H20.01l14.04-33.22
		c0.06-0.14,0.06-0.3,0-0.44l-3.52-8.45H67.27 M67.27,77.61H29.68l3.85,9.25l-14.38,34.02h12.91l14.38-34.02h11.32
		c1.75,0,2.57,1.43,1.83,3.19l-13.03,30.83h12.91L73.3,88.13C75.75,82.32,73.05,77.61,67.27,77.61L67.27,77.61z"/>
	<path class="st0" d="M234.77,78.18l-13.5,31.95c-2.37,5.61-8.83,10.17-14.4,10.17H177.9l14.04-33.22c0.06-0.14,0.06-0.3,0-0.44
		l-3.52-8.45h18.95l-13.64,32.26c-0.07,0.18-0.06,0.38,0.05,0.54c0.11,0.16,0.28,0.26,0.48,0.26h8.7c3.4,0,7.34-2.76,8.77-6.16
		l11.37-26.89H234.77 M235.63,77.61h0.01H235.63z M235.63,77.61h-12.91l-11.51,27.24c-1.36,3.21-5.05,5.81-8.25,5.81h-8.7
		l13.97-33.05h-20.66l3.85,9.25l-14.38,34.02h29.83c5.79,0,12.47-4.71,14.92-10.52L235.63,77.61L235.63,77.61z"/>
	<path class="st0" d="M276.77,78.18c2.44,0,4.37,0.9,5.44,2.52c1.2,1.82,1.22,4.45,0.06,7.2l-8.72,20.64
		c-2.74,6.48-10.21,11.76-16.65,11.76h-17.77c-2.44,0-4.37-0.9-5.44-2.52c-1.2-1.82-1.22-4.45-0.06-7.2l8.72-20.64
		c2.74-6.48,10.21-11.76,16.65-11.76H276.77 M249.05,111.24h5.53c3.4,0,7.34-2.76,8.77-6.16l6.26-14.81
		c0.45-1.07,0.42-2.12-0.08-2.89c-0.47-0.71-1.27-1.1-2.27-1.1h-5.53c-3.4,0-7.34,2.76-8.77,6.16l-6.26,14.81
		c-0.45,1.07-0.42,2.12,0.08,2.89C247.25,110.85,248.06,111.24,249.05,111.24 M276.77,77.61H259c-6.66,0-14.35,5.42-17.18,12.11
		l-8.72,20.64c-2.46,5.81,0.24,10.52,6.03,10.52h17.77c6.66,0,14.35-5.42,17.18-12.11l8.72-20.64
		C285.26,82.32,282.56,77.61,276.77,77.61L276.77,77.61z M249.05,110.67c-1.75,0-2.57-1.43-1.83-3.19l6.26-14.81
		c1.36-3.21,5.05-5.81,8.25-5.81h5.53c1.75,0,2.57,1.43,1.83,3.19l-6.26,14.81c-1.36,3.21-5.05,5.81-8.25,5.81H249.05L249.05,110.67
		z"/>
	<path class="st0" d="M126.39,78.18l-3.42,8.1H99.7c-0.23,0-0.44,0.14-0.53,0.35l-3.2,7.58c-0.07,0.18-0.06,0.38,0.05,0.54
		c0.11,0.16,0.28,0.26,0.48,0.26h17.79l-3.16,7.47H92.85c-0.23,0-0.44,0.14-0.53,0.35l-3.22,7.61c-0.07,0.18-0.06,0.38,0.05,0.54
		c0.11,0.16,0.28,0.26,0.48,0.26h24.97l-3.83,9.07l-37.5,0l14.04-33.22c0.06-0.14,0.06-0.3,0-0.44l-3.52-8.45H126.39 M127.25,77.61
		h-44.3l3.85,9.25l-14.38,34.02l0,0h38.74l4.32-10.21H89.64l3.22-7.61h18.65l3.64-8.62H96.5l3.2-7.58h23.64L127.25,77.61
		L127.25,77.61z M115.15,94.44h0.01H115.15z"/>
</g>
</svg>
